<svg xmlns="http://www.w3.org/2000/svg" viewBox="0 0 2422 2422" width="2422" height="2422"><g transform="translate(591,346)" fill="#161616">
	<path d="M 577 79.043 C 381.086 86.355, 205.405 164.124, 106.099 287.500 C 60.460 344.201, 31.251 408.507, 19.110 479.010 C 14.212 507.458, 13.499 517.585, 13.518 558.500 C 13.537 601.071, 14.259 610.669, 20.100 646 C 49.755 825.394, 134.202 931.682, 288.997 984.447 C 351.171 1005.641, 405.488 1016.041, 545 1033.463 C 682.893 1050.682, 727.793 1059.122, 768.500 1075.474 C 817.918 1095.325, 854.733 1125.596, 877.692 1165.258 C 883.462 1175.226, 891.412 1194.713, 894.399 1206.206 C 901.913 1235.127, 901.930 1267.423, 894.447 1297.143 C 880.074 1354.229, 840.210 1404.306, 784.500 1435.257 C 747.672 1455.718, 711.183 1465.662, 654.500 1470.685 C 625.569 1473.249, 556.280 1473.247, 533 1470.682 C 457.006 1462.310, 398.701 1440.217, 351 1401.718 C 338.063 1391.277, 314.922 1367.734, 305.079 1355 C 290.309 1335.892, 274.472 1310.180, 265.500 1290.745 L 261.500 1282.080 130.630 1282.040 L -0.240 1282 0.448 1293.750 C 5.296 1376.620, 30.360 1447.402, 77.199 1510.500 C 102.551 1544.652, 136.200 1577.861, 172.696 1604.749 C 281.476 1684.888, 433.334 1730.047, 593.861 1729.990 C 796.866 1729.919, 973.993 1657.795, 1068.234 1536.832 C 1085.672 1514.449, 1098.551 1493.412, 1113.018 1463.680 C 1142.274 1403.557, 1159.782 1339.517, 1164.983 1273.605 C 1166.287 1257.076, 1166.278 1213.038, 1164.967 1197.500 C 1151.469 1037.469, 1065.502 908.227, 927.500 840.492 C 866.030 810.321, 827.587 801.614, 682.500 785.002 C 591.659 774.601, 556.343 769.640, 514.500 761.402 C 385.280 735.963, 314.954 692.297, 290.693 622.439 C 276.256 580.868, 278.529 527.754, 296.578 484.935 C 306.366 461.715, 319.383 442.700, 339 422.968 C 362.388 399.444, 388.233 382.093, 422.338 367.021 C 521.533 323.184, 655.508 322.089, 762.766 364.238 C 776.597 369.673, 803.843 383.094, 816 390.460 C 880.636 429.625, 921.620 486.693, 932.981 553.349 C 934.091 559.867, 935 566.467, 935 568.018 C 935 569.568, 935.273 571.548, 935.607 572.418 C 936.156 573.850, 948.916 574, 1069.857 574.002 L 1203.500 574.004 1203.223 567.752 C 1202.790 557.963, 1200.098 530.572, 1198.433 519 C 1177.408 372.944, 1099.569 254.677, 972.500 175.727 C 863.738 108.151, 722.462 73.614, 577 79.043" stroke="none" fill="#161616" fill-rule="evenodd"/>
</g></svg>