<svg xmlns="http://www.w3.org/2000/svg" width="1400" height="324" viewBox="0 0 1400 324" version="1.1">
	<path d="M 1338.362 1.494 C 1329.040 3.521, 1321.202 7.777, 1314.431 14.486 C 1304.832 23.998, 1300.034 35.883, 1300.012 50.201 C 1299.996 60.352, 1301.449 66.930, 1305.669 75.822 C 1314.337 94.084, 1333.339 104.530, 1354.403 102.613 C 1383.379 99.975, 1401.392 78.850, 1399.692 49.500 C 1399.136 39.906, 1396.421 30.790, 1391.763 22.880 C 1388.303 17.004, 1379.884 8.799, 1374.065 5.632 C 1364.403 0.373, 1350.777 -1.206, 1338.362 1.494 M 255 165 L 255 318 279.990 318 L 304.980 318 305.240 271.818 L 305.500 225.637 348.500 271.806 L 391.500 317.975 421.750 317.987 C 438.387 317.994, 451.993 317.663, 451.985 317.250 C 451.976 316.837, 429.919 291.771, 402.969 261.547 C 376.019 231.323, 354.088 206.290, 354.234 205.918 C 354.380 205.547, 376.775 180.357, 404 149.940 C 431.225 119.524, 453.860 94.044, 454.300 93.319 C 454.955 92.239, 449.797 92.003, 425.800 92.014 L 396.500 92.028 351 140.701 L 305.500 189.375 305.245 100.688 L 304.989 12 279.995 12 L 255 12 255 165 M 1340.147 13.075 C 1330.499 14.972, 1319.230 25.059, 1313.708 36.741 C 1310.879 42.727, 1310.518 44.473, 1310.551 52.011 C 1310.583 59.389, 1311 61.402, 1313.682 67.134 C 1317.924 76.200, 1322.858 81.326, 1331.405 85.551 C 1353.011 96.229, 1376.267 88.613, 1386.078 67.647 C 1399.618 38.712, 1372.660 6.682, 1340.147 13.075 M 90.500 16.568 C 65.304 20.415, 43.007 31.006, 26.668 46.887 C 13.802 59.392, 6.570 73.053, 3.502 90.648 C 1.625 101.412, 1.623 106.918, 3.489 119.303 C 7.645 146.871, 19.779 166.776, 39.084 177.694 C 52.892 185.504, 67.010 189.100, 101 193.466 C 128.842 197.042, 139.078 199.240, 147.671 203.487 C 171.278 215.154, 175.066 243.407, 155.504 261.908 C 146.345 270.570, 136.114 274.231, 117.500 275.508 C 87.343 277.575, 64.832 267.522, 52.535 246.495 L 48.736 240 24.368 240 L 0 240 0 243.042 C 0 244.715, 0.716 249.550, 1.591 253.785 C 7.624 282.995, 29.487 304.854, 64.329 316.511 C 80.263 321.843, 90.904 323.419, 111 323.426 C 136.152 323.434, 152.850 319.737, 172 309.920 C 194.085 298.599, 206.973 282.757, 214.643 257.500 C 217.133 249.302, 217.381 247.030, 217.428 232 C 217.487 212.867, 216.433 207.748, 209.502 193.500 C 201.595 177.247, 190.068 165.715, 173.500 157.485 C 162.683 152.112, 153.123 149.890, 128.500 147.027 C 103.666 144.138, 93.027 142.258, 82.334 138.867 C 66.709 133.912, 56.826 125.470, 53.877 114.559 C 52.109 108.017, 53.234 96.352, 56.275 89.710 C 61.713 77.832, 76.443 67.933, 93.868 64.446 C 104.038 62.410, 124.303 62.894, 133.500 65.391 C 155.164 71.273, 170.762 85.521, 174.182 102.554 L 175.276 108 200.282 108 L 225.287 108 224.656 101.208 C 219.864 49.646, 174.306 14.670, 112.500 15.103 C 105.350 15.153, 95.450 15.812, 90.500 16.568 M 1335.250 26.802 L 1330 27.105 1330 51.052 L 1330 75 1336.500 75 L 1343 75 1343 68.122 C 1343 57.340, 1345.899 56.565, 1352.967 65.459 C 1354.635 67.558, 1356 69.597, 1356 69.991 C 1356 70.386, 1357.104 71.899, 1358.452 73.354 C 1360.945 76.043, 1365.455 76.789, 1370.708 75.381 C 1372.785 74.824, 1372.560 74.330, 1366.864 66.983 L 1360.814 59.177 1364.885 54.026 C 1367.125 51.192, 1369.493 47.087, 1370.147 44.902 C 1373.659 33.181, 1358.752 25.449, 1335.250 26.802 M 730 63.500 L 730 92 705.655 92 C 683.340 92, 681.172 92.152, 679.655 93.829 C 678.225 95.409, 678 98.532, 678 116.829 L 678 138 702.345 138 C 724.660 138, 726.828 138.152, 728.345 139.829 C 729.847 141.488, 730 147.273, 730 202.269 L 730 262.881 732.608 270.190 C 734.043 274.211, 737.149 281.550, 739.510 286.500 C 747.638 303.537, 762.068 314.369, 785.121 320.738 C 795.079 323.489, 825.640 323.165, 836.378 320.195 C 865.110 312.248, 882.756 292.292, 891.416 257.951 C 892.814 252.409, 894.254 244.977, 894.617 241.437 L 895.276 235 872.799 235 L 850.322 235 848.130 243.190 C 843.697 259.755, 836.608 269.946, 826.089 274.879 C 821.210 277.167, 819.230 277.497, 810.500 277.477 C 802.642 277.459, 799.643 277.035, 796.500 275.500 C 790.971 272.798, 784.650 266.023, 781.308 259.218 L 778.500 253.500 778.226 195.750 L 777.953 138 852.976 138 L 928 138 928.015 198.250 C 928.031 265.587, 927.989 265.099, 934.987 279.578 C 944.515 299.295, 960.979 313.919, 980.500 320.006 C 990.522 323.130, 1014.863 323.929, 1027.475 321.546 C 1064.798 314.497, 1086.954 289.239, 1091.969 248.026 C 1092.536 243.366, 1093 238.528, 1093 237.276 L 1093 235 1071.539 235 L 1050.077 235 1048.982 239.250 C 1046.963 247.089, 1045.742 250.465, 1042.746 256.500 C 1038.098 265.861, 1033.784 270.489, 1026.245 274.200 C 1020.067 277.242, 1018.797 277.498, 1010.021 277.476 C 1002.447 277.456, 999.540 277.012, 995.804 275.306 C 989.937 272.625, 983.078 265.858, 980.198 259.908 C 978.011 255.391, 978 255.084, 978 196.684 L 978 138 1031.500 138 L 1085 138 1085 115 L 1085 92 1031.500 92 L 978 92 978 63.500 L 978 35 953 35 L 928 35 928 63.500 L 928 92 853 92 L 778 92 778 63.500 L 778 35 754 35 L 730 35 730 63.500 M 1343.750 37.571 C 1343.338 37.990, 1343 41.014, 1343 44.290 L 1343 50.248 1348.559 49.787 C 1355.142 49.241, 1358.620 46.589, 1357.668 42.841 C 1357.342 41.553, 1356.148 39.928, 1355.015 39.228 C 1352.483 37.663, 1344.775 36.530, 1343.750 37.571 M 535.585 88.050 C 481.969 96.387, 445.986 143.317, 446.004 204.881 C 446.011 227.051, 449.598 244.109, 457.940 261.630 C 469.524 285.962, 485.713 302.434, 508.567 313.144 C 530.931 323.625, 563.920 326.369, 590.800 319.985 C 623.898 312.124, 653.376 284.063, 664.843 249.500 C 672.621 226.055, 672.885 190.546, 665.474 164.500 C 659.824 144.643, 646.581 123.444, 632.554 111.802 C 620.054 101.427, 602.863 93.003, 587 89.479 C 578.207 87.525, 544.908 86.600, 535.585 88.050 M 1205.585 88.107 C 1183.433 91.337, 1165.434 100.544, 1150.157 116.457 C 1128.311 139.212, 1117.617 168.311, 1117.617 205 C 1117.617 229.918, 1122.184 250.015, 1132.236 269.337 C 1152.730 308.729, 1188.615 326.919, 1237.950 322.924 C 1275.685 319.868, 1305.681 302.832, 1323.079 274.575 C 1327.812 266.890, 1333.127 255.366, 1334.530 249.750 L 1335.217 247 1312.194 247 L 1289.170 247 1285.634 251.818 C 1278.343 261.750, 1266.976 270.556, 1255.345 275.282 C 1245.267 279.377, 1239.154 280.497, 1227.500 280.386 C 1209.046 280.210, 1194.652 274.097, 1183.248 261.592 C 1175.222 252.793, 1168.099 235.795, 1168.017 225.250 L 1168 223 1247.915 223 L 1327.829 223 1328.556 215.250 C 1329.594 204.187, 1328.347 181.121, 1326.110 170 C 1319.313 136.212, 1301.705 110.914, 1276.004 98.006 C 1266.493 93.229, 1254.607 89.469, 1244.636 88.082 C 1235.656 86.833, 1214.225 86.847, 1205.585 88.107 M 1212 131.576 C 1189.506 137.484, 1173.209 155.153, 1168.491 178.750 L 1167.841 182 1224.921 182 L 1282 182 1281.988 179.250 C 1281.968 174.683, 1279.258 165.915, 1275.536 158.380 C 1269.292 145.738, 1256.066 135.336, 1241.369 131.508 C 1234.139 129.625, 1219.299 129.659, 1212 131.576 M 547.500 132.633 C 532.501 134.947, 519.754 142.295, 511.300 153.500 C 494.455 175.828, 489.678 208.327, 499.105 236.471 C 507.191 260.613, 522.037 273.169, 547.142 277.100 C 561.544 279.356, 579.141 277.115, 589.629 271.692 C 610.117 261.097, 625.024 227.982, 622.576 198.505 C 621.532 185.928, 619.224 177.295, 614.018 166.486 C 603.518 144.686, 585.543 133.151, 561 132.464 C 555.225 132.302, 549.150 132.378, 547.500 132.633" stroke="none" fill="black" fill-rule="evenodd"/>
</svg>